# Blender v2.79 (sub 0) OBJ File: 'Cookie box.blend'
# www.blender.org
mtllib Cookie box.mtl
o BOX_Cube
v 3.518306 -3.518306 -3.518306
v 3.518306 -3.518306 -1.764433
v -3.518307 -3.518306 -1.764434
v -3.518305 -3.518306 -3.518308
v 3.518308 5.648074 -3.518305
v 3.518304 5.648074 -1.764431
v -3.518308 5.648074 -1.764434
v -3.518306 5.648074 -3.518306
vt 0.632172 0.201542
vt 0.632172 0.214751
vt 0.557228 0.214751
vt 0.557228 0.201542
vt 0.632172 0.270576
vt 0.557228 0.270576
vt 0.557228 0.283784
vt 0.632172 0.283784
vt 0.609288 0.187563
vt 0.609288 0.320870
vt 0.583782 0.320870
vt 0.583782 0.187563
vt 0.658898 0.082441
vt 0.672640 0.837003
vt 0.200578 0.862003
vt 0.211526 0.198945
vt 0.597162 0.642861
vt 0.597163 0.808453
vt 0.628847 0.808453
vt 0.628847 0.642861
vt 0.191935 0.869942
vt 0.216279 0.191552
vt 0.662381 0.081599
vt 0.676137 0.837299
vn 0.0000 -1.0000 -0.0000
vn 0.0000 1.0000 0.0000
vn 1.0000 0.0000 0.0000
vn -0.0000 -0.0000 1.0000
vn -1.0000 -0.0000 -0.0000
vn 0.0000 0.0000 -1.0000
usemtl Material
s off
f 1/1/1 2/2/1 3/3/1 4/4/1
f 5/5/2 8/6/2 7/7/2 6/8/2
f 1/9/3 5/10/3 6/11/3 2/12/3
f 2/13/4 6/14/4 7/15/4 3/16/4
f 3/17/5 7/18/5 8/19/5 4/20/5
f 5/21/6 1/22/6 4/23/6 8/24/6
