# 3ds Max Wavefront OBJ Exporter v0.97b - (c)2007 guruware
# File Created: 12.12.2022 15:31:08

mtllib Mrf Porcelain Tile04.mtl

#
# object Floor_Porcelain0402
#

v  649.3350 -0.0000 -250.0000
v  1149.3350 -0.0000 -250.0000
v  1149.3350 -0.0001 250.0000
v  649.3350 -0.0001 250.0000
# 4 vertices

vn 0.0000 -1.0000 -0.0000
# 1 vertex normals

vt -0.5417 -0.5417 0.5000
vt 1.5417 -0.5417 0.5000
vt 1.5417 1.5417 0.5000
vt -0.5417 1.5417 0.5000
# 4 texture coords

g Floor_Porcelain0402
usemtl wire_087225198
s 1
f 1/1/1 2/2/1 3/3/1 4/4/1 
# 1 polygons

#
# object Floor_Porcelain0403
#

v  49.7783 -0.0000 -250.0000
v  549.7783 -0.0000 -250.0000
v  549.7783 -0.0001 250.0000
v  49.7783 -0.0001 250.0000
# 4 vertices

vn 0.0000 -1.0000 -0.0000
# 1 vertex normals

vt -0.5417 -0.5417 0.5000
vt 1.5417 -0.5417 0.5000
vt 1.5417 1.5417 0.5000
vt -0.5417 1.5417 0.5000
# 4 texture coords

g Floor_Porcelain0403
usemtl wire_087225198
s 1
f 5/5/2 6/6/2 7/7/2 8/8/2 
# 1 polygons

#
# object Floor_Porcelain0404
#

v  -549.7783 -0.0000 -250.0000
v  -49.7783 -0.0000 -250.0000
v  -49.7783 -0.0001 250.0000
v  -549.7783 -0.0001 250.0000
# 4 vertices

vn 0.0000 -1.0000 -0.0000
# 1 vertex normals

vt -0.6364 -0.6364 0.5000
vt 1.6364 -0.6364 0.5000
vt 1.6364 1.6364 0.5000
vt -0.6364 1.6364 0.5000
# 4 texture coords

g Floor_Porcelain0404
usemtl wire_087225198
s 1
f 9/9/3 10/10/3 11/11/3 12/12/3 
# 1 polygons

#
# object Floor_Porcelain0401
#

v  -1149.3350 -0.0000 -250.0000
v  -649.3350 -0.0000 -250.0000
v  -649.3350 -0.0001 250.0000
v  -1149.3350 -0.0001 250.0000
# 4 vertices

vn 0.0000 -1.0000 -0.0000
# 1 vertex normals

vt -0.6364 -0.6364 0.5000
vt 1.6364 -0.6364 0.5000
vt 1.6364 1.6364 0.5000
vt -0.6364 1.6364 0.5000
# 4 texture coords

g Floor_Porcelain0401
usemtl wire_087225198
s 1
f 13/13/4 14/14/4 15/15/4 16/16/4 
# 1 polygons

